G04 Layer_Color=8421504*
%FSAX24Y24*%
%MOIN*%
G70*
G01*
G75*
%ADD10R,0.0531X0.0374*%
%ADD11R,0.0512X0.0335*%
%ADD12R,0.0327X0.0248*%
%ADD13R,0.0413X0.0236*%
%ADD14R,0.0630X0.0748*%
%ADD15R,0.0157X0.0531*%
%ADD16R,0.1055X0.1055*%
%ADD17O,0.0315X0.0079*%
%ADD18O,0.0079X0.0315*%
%ADD19O,0.0190X0.0531*%
D10*
X207500Y130935D02*
D03*
Y131565D02*
D03*
X202450Y133350D02*
D03*
Y133980D02*
D03*
X203850Y129735D02*
D03*
Y130365D02*
D03*
X206750Y130935D02*
D03*
Y131565D02*
D03*
Y132765D02*
D03*
Y132135D02*
D03*
D11*
X202450Y131585D02*
D03*
Y130915D02*
D03*
X203850Y130915D02*
D03*
Y131585D02*
D03*
X202450Y129715D02*
D03*
Y130385D02*
D03*
X206050Y132115D02*
D03*
Y132785D02*
D03*
X204650Y133985D02*
D03*
Y133315D02*
D03*
Y132115D02*
D03*
Y132785D02*
D03*
X205350Y132115D02*
D03*
Y132785D02*
D03*
Y133985D02*
D03*
Y133315D02*
D03*
X206050Y133985D02*
D03*
Y133315D02*
D03*
X206750Y133985D02*
D03*
Y133315D02*
D03*
X202450Y132785D02*
D03*
Y132115D02*
D03*
X203150Y129715D02*
D03*
Y130385D02*
D03*
D12*
Y131739D02*
D03*
Y130861D02*
D03*
X202450Y129239D02*
D03*
Y128361D02*
D03*
D13*
X206659Y130274D02*
D03*
Y129900D02*
D03*
Y129526D02*
D03*
X207741D02*
D03*
Y130274D02*
D03*
D14*
X206565Y128247D02*
D03*
X203258D02*
D03*
D15*
X205424Y129300D02*
D03*
X205168D02*
D03*
X204912D02*
D03*
X204656D02*
D03*
X204400D02*
D03*
D16*
X205300Y130750D02*
D03*
D17*
X204493Y130258D02*
D03*
Y130455D02*
D03*
Y130652D02*
D03*
Y130848D02*
D03*
Y131045D02*
D03*
Y131242D02*
D03*
X206107D02*
D03*
Y131045D02*
D03*
Y130848D02*
D03*
Y130652D02*
D03*
Y130455D02*
D03*
Y130258D02*
D03*
D18*
X204808Y131557D02*
D03*
X205005D02*
D03*
X205202D02*
D03*
X205398D02*
D03*
X205595D02*
D03*
X205792D02*
D03*
Y129943D02*
D03*
X205595D02*
D03*
X205398D02*
D03*
X205202D02*
D03*
X205005D02*
D03*
X204808D02*
D03*
D19*
X203934Y134076D02*
D03*
X203678D02*
D03*
X203422D02*
D03*
X203166D02*
D03*
X203934Y132324D02*
D03*
X203678D02*
D03*
X203422D02*
D03*
X203166D02*
D03*
M02*
