G04 Layer_Physical_Order=1*
G04 Layer_Color=6120410*
%FSAX24Y24*%
%MOIN*%
G70*
G01*
G75*
%ADD10R,0.0531X0.0374*%
%ADD11R,0.0512X0.0335*%
%ADD12R,0.0327X0.0248*%
%ADD13R,0.0413X0.0236*%
%ADD14R,0.0630X0.0748*%
%ADD15R,0.0157X0.0531*%
%ADD16R,0.1055X0.1055*%
%ADD17O,0.0315X0.0079*%
%ADD18O,0.0079X0.0315*%
%ADD19O,0.0190X0.0531*%
%ADD20C,0.0200*%
%ADD21C,0.0100*%
%ADD22C,0.0250*%
%ADD23C,0.0060*%
%ADD24C,0.0150*%
%ADD25C,0.0080*%
%ADD26C,0.0945*%
%ADD27C,0.0250*%
%ADD28C,0.1500*%
G36*
X208056Y137452D02*
X208067D01*
X208078Y137449D01*
X208127Y137447D01*
X208131Y137448D01*
X208135Y137447D01*
X209300Y137447D01*
X209334D01*
X209401Y137434D01*
X209464Y137408D01*
X209521Y137370D01*
X209570Y137321D01*
X209608Y137264D01*
X209634Y137201D01*
X209647Y137134D01*
X209647Y137100D01*
Y127950D01*
Y127916D01*
X209634Y127849D01*
X209608Y127786D01*
X209570Y127729D01*
X209521Y127680D01*
X209464Y127642D01*
X209401Y127616D01*
X209334Y127603D01*
X200266D01*
X200199Y127616D01*
X200136Y127642D01*
X200079Y127680D01*
X200030Y127729D01*
X199992Y127786D01*
X199966Y127849D01*
X199953Y127916D01*
Y127950D01*
Y137100D01*
Y137134D01*
X199966Y137201D01*
X199992Y137264D01*
X200030Y137321D01*
X200079Y137370D01*
X200136Y137408D01*
X200199Y137434D01*
X200265Y137447D01*
X200299Y137447D01*
X200300Y137447D01*
X200300Y137447D01*
X201515D01*
X201519Y137447D01*
X201523Y137447D01*
X201550Y137448D01*
X201594Y137416D01*
X201600Y137407D01*
X201600Y135050D01*
X208000Y135050D01*
X208000Y137424D01*
X208039Y137455D01*
X208056Y137452D01*
D02*
G37*
%LPC*%
G36*
X200475Y130105D02*
X200411Y130097D01*
X200281Y130043D01*
X200170Y129958D01*
X200085Y129846D01*
X200031Y129717D01*
X200023Y129653D01*
X200475D01*
Y130105D01*
D02*
G37*
G36*
X209125D02*
Y129653D01*
X209577D01*
X209569Y129717D01*
X209515Y129846D01*
X209430Y129958D01*
X209319Y130043D01*
X209189Y130097D01*
X209125Y130105D01*
D02*
G37*
G36*
X204116Y129987D02*
X203925D01*
Y129810D01*
X204181D01*
Y129922D01*
X204162Y129968D01*
X204116Y129987D01*
D02*
G37*
G36*
X200625Y130105D02*
Y129653D01*
X201077D01*
X201069Y129717D01*
X201015Y129846D01*
X200930Y129958D01*
X200819Y130043D01*
X200689Y130097D01*
X200625Y130105D01*
D02*
G37*
G36*
X204325Y129631D02*
X204321D01*
X204275Y129612D01*
X204256Y129566D01*
Y129375D01*
X204325D01*
Y129631D01*
D02*
G37*
G36*
X207948Y129709D02*
X207535D01*
X207489Y129690D01*
X207470Y129644D01*
Y129408D01*
X207489Y129362D01*
X207535Y129343D01*
X207948D01*
X207994Y129362D01*
X208013Y129408D01*
Y129644D01*
X207994Y129690D01*
X207948Y129709D01*
D02*
G37*
G36*
X208975Y130105D02*
X208911Y130097D01*
X208781Y130043D01*
X208670Y129958D01*
X208585Y129846D01*
X208531Y129717D01*
X208523Y129653D01*
X208975D01*
Y130105D01*
D02*
G37*
G36*
X204181Y129660D02*
X203925D01*
Y129483D01*
X204116D01*
X204162Y129502D01*
X204181Y129548D01*
Y129660D01*
D02*
G37*
G36*
X203775Y129987D02*
X203584D01*
X203538Y129968D01*
X203519Y129922D01*
Y129886D01*
X203471Y129883D01*
X203452Y129929D01*
X203406Y129948D01*
X203225D01*
Y129715D01*
Y129483D01*
X203406D01*
X203452Y129502D01*
X203471Y129548D01*
X203519D01*
X203538Y129502D01*
X203584Y129483D01*
X203775D01*
Y129735D01*
Y129987D01*
D02*
G37*
G36*
X206675Y131490D02*
X206419D01*
Y131378D01*
X206438Y131332D01*
X206484Y131313D01*
X206675D01*
Y131490D01*
D02*
G37*
G36*
X207831Y131490D02*
X207575D01*
Y131313D01*
X207766D01*
X207812Y131332D01*
X207831Y131378D01*
Y131490D01*
D02*
G37*
G36*
X206675Y131817D02*
X206484D01*
X206438Y131798D01*
X206419Y131752D01*
Y131640D01*
X206675D01*
Y131817D01*
D02*
G37*
G36*
X207081Y131490D02*
X206825D01*
Y131313D01*
X207016D01*
X207062Y131332D01*
X207081Y131378D01*
Y131490D01*
D02*
G37*
G36*
X200550Y131493D02*
X200411Y131475D01*
X200281Y131421D01*
X200170Y131336D01*
X200085Y131224D01*
X200031Y131095D01*
X200013Y130956D01*
X200031Y130817D01*
X200085Y130687D01*
X200170Y130576D01*
X200281Y130491D01*
X200411Y130437D01*
X200550Y130419D01*
X200689Y130437D01*
X200819Y130491D01*
X200930Y130576D01*
X201015Y130687D01*
X201042Y130752D01*
X202129D01*
Y130748D01*
X202148Y130702D01*
X202194Y130683D01*
X202706D01*
X202752Y130702D01*
X202771Y130748D01*
Y131083D01*
X202752Y131129D01*
X202706Y131148D01*
X202194D01*
X202148Y131129D01*
X202129Y131083D01*
Y131078D01*
X201071D01*
X201069Y131095D01*
X201015Y131224D01*
X200930Y131336D01*
X200819Y131421D01*
X200689Y131475D01*
X200550Y131493D01*
D02*
G37*
G36*
X207016Y131817D02*
X206825D01*
Y131640D01*
X207081D01*
Y131752D01*
X207062Y131798D01*
X207016Y131817D01*
D02*
G37*
G36*
X207425Y131490D02*
X207169D01*
Y131378D01*
X207188Y131332D01*
X207234Y131313D01*
X207425D01*
Y131490D01*
D02*
G37*
G36*
X203075Y131050D02*
X202987D01*
X202941Y131031D01*
X202922Y130985D01*
Y130936D01*
X203075D01*
Y131050D01*
D02*
G37*
G36*
X202678Y128286D02*
X202525D01*
Y128172D01*
X202613D01*
X202659Y128191D01*
X202678Y128237D01*
Y128286D01*
D02*
G37*
G36*
X202375D02*
X202222D01*
Y128237D01*
X202241Y128191D01*
X202287Y128172D01*
X202375D01*
Y128286D01*
D02*
G37*
G36*
X203183Y128686D02*
X202943D01*
X202897Y128667D01*
X202878Y128621D01*
Y128322D01*
X203183D01*
Y128686D01*
D02*
G37*
G36*
X206490D02*
X206250D01*
X206204Y128667D01*
X206185Y128621D01*
Y128322D01*
X206490D01*
Y128686D01*
D02*
G37*
G36*
X203638Y128172D02*
X203333D01*
Y127808D01*
X203573D01*
X203619Y127827D01*
X203638Y127873D01*
Y128172D01*
D02*
G37*
G36*
X203183D02*
X202878D01*
Y127873D01*
X202897Y127827D01*
X202943Y127808D01*
X203183D01*
Y128172D01*
D02*
G37*
G36*
X206945D02*
X206640D01*
Y127808D01*
X206880D01*
X206926Y127827D01*
X206945Y127873D01*
Y128172D01*
D02*
G37*
G36*
X206490D02*
X206185D01*
Y127873D01*
X206204Y127827D01*
X206250Y127808D01*
X206490D01*
Y128172D01*
D02*
G37*
G36*
X203573Y128686D02*
X203333D01*
Y128322D01*
X203638D01*
Y128621D01*
X203619Y128667D01*
X203573Y128686D01*
D02*
G37*
G36*
X201077Y129503D02*
X200625D01*
Y129051D01*
X200689Y129059D01*
X200819Y129113D01*
X200930Y129198D01*
X201015Y129309D01*
X201069Y129439D01*
X201077Y129503D01*
D02*
G37*
G36*
X200475D02*
X200023D01*
X200031Y129439D01*
X200085Y129309D01*
X200170Y129198D01*
X200281Y129113D01*
X200411Y129059D01*
X200475Y129051D01*
Y129503D01*
D02*
G37*
G36*
X209577Y129503D02*
X209125D01*
Y129051D01*
X209189Y129059D01*
X209319Y129113D01*
X209430Y129198D01*
X209515Y129309D01*
X209569Y129439D01*
X209577Y129503D01*
D02*
G37*
G36*
X208975D02*
X208523D01*
X208531Y129439D01*
X208585Y129309D01*
X208670Y129198D01*
X208781Y129113D01*
X208911Y129059D01*
X208975Y129051D01*
Y129503D01*
D02*
G37*
G36*
X202375Y128550D02*
X202287D01*
X202241Y128531D01*
X202222Y128485D01*
Y128436D01*
X202375D01*
Y128550D01*
D02*
G37*
G36*
X206880Y128686D02*
X206640D01*
Y128322D01*
X206945D01*
Y128621D01*
X206926Y128667D01*
X206880Y128686D01*
D02*
G37*
G36*
X204325Y129225D02*
X204256D01*
Y129034D01*
X204275Y128988D01*
X204321Y128969D01*
X204325D01*
Y129225D01*
D02*
G37*
G36*
X202613Y128550D02*
X202525D01*
Y128436D01*
X202678D01*
Y128485D01*
X202659Y128531D01*
X202613Y128550D01*
D02*
G37*
G36*
X207425Y131817D02*
X207234D01*
X207188Y131798D01*
X207169Y131752D01*
Y131640D01*
X207425D01*
Y131817D01*
D02*
G37*
G36*
X202375Y133602D02*
X202184D01*
X202138Y133583D01*
X202119Y133537D01*
Y133425D01*
X202375D01*
Y133602D01*
D02*
G37*
G36*
X200550Y134249D02*
X200411Y134231D01*
X200281Y134177D01*
X200170Y134092D01*
X200085Y133980D01*
X200031Y133851D01*
X200013Y133712D01*
X200031Y133573D01*
X200085Y133443D01*
X200170Y133332D01*
X200281Y133247D01*
X200411Y133193D01*
X200550Y133175D01*
X200689Y133193D01*
X200819Y133247D01*
X200930Y133332D01*
X201015Y133443D01*
X201069Y133573D01*
X201087Y133712D01*
X201069Y133851D01*
X201015Y133980D01*
X200930Y134092D01*
X200819Y134177D01*
X200689Y134231D01*
X200550Y134249D01*
D02*
G37*
G36*
Y135627D02*
X200411Y135609D01*
X200281Y135555D01*
X200170Y135470D01*
X200085Y135358D01*
X200031Y135229D01*
X200013Y135090D01*
X200031Y134951D01*
X200085Y134821D01*
X200170Y134710D01*
X200281Y134625D01*
X200411Y134571D01*
X200550Y134553D01*
X200689Y134571D01*
X200819Y134625D01*
X200930Y134710D01*
X201015Y134821D01*
X201069Y134951D01*
X201087Y135090D01*
X201069Y135229D01*
X201015Y135358D01*
X200930Y135470D01*
X200819Y135555D01*
X200689Y135609D01*
X200550Y135627D01*
D02*
G37*
G36*
X202716Y133602D02*
X202525D01*
Y133425D01*
X202781D01*
Y133537D01*
X202762Y133583D01*
X202716Y133602D01*
D02*
G37*
G36*
X202706Y133017D02*
X202525D01*
Y132860D01*
X202771D01*
Y132952D01*
X202752Y132998D01*
X202706Y133017D01*
D02*
G37*
G36*
X205606D02*
X205425D01*
Y132860D01*
X205671D01*
Y132952D01*
X205652Y132998D01*
X205606Y133017D01*
D02*
G37*
G36*
X202781Y133275D02*
X202525D01*
Y133098D01*
X202716D01*
X202762Y133117D01*
X202781Y133163D01*
Y133275D01*
D02*
G37*
G36*
X202375D02*
X202119D01*
Y133163D01*
X202138Y133117D01*
X202184Y133098D01*
X202375D01*
Y133275D01*
D02*
G37*
G36*
X209050Y135627D02*
X208911Y135609D01*
X208781Y135555D01*
X208670Y135470D01*
X208585Y135358D01*
X208531Y135229D01*
X208513Y135090D01*
X208525Y135001D01*
X208492Y134963D01*
X206165D01*
X206103Y134951D01*
X206050Y134915D01*
X205352Y134217D01*
X205192D01*
X205029Y134379D01*
X204993Y134404D01*
X204950Y134412D01*
X204950Y134412D01*
X203966D01*
X203966Y134412D01*
X203923Y134404D01*
X203921Y134402D01*
X203873Y134393D01*
X203822Y134358D01*
X203790D01*
X203738Y134393D01*
X203678Y134405D01*
X203617Y134393D01*
X203585Y134371D01*
X203550Y134363D01*
X203515Y134371D01*
X203497Y134383D01*
Y134076D01*
Y133769D01*
X203515Y133781D01*
X203550Y133789D01*
X203585Y133781D01*
X203617Y133759D01*
X203635Y133756D01*
X203820Y133571D01*
X203820Y133571D01*
X203856Y133546D01*
X203899Y133538D01*
X204298D01*
X204331Y133488D01*
X204329Y133483D01*
Y133362D01*
X203505D01*
X203278Y133589D01*
Y133758D01*
X203328Y133781D01*
X203347Y133769D01*
Y134076D01*
Y134383D01*
X203310Y134358D01*
X203278D01*
X203227Y134393D01*
X203166Y134405D01*
X203106Y134393D01*
X203054Y134358D01*
X203020Y134307D01*
X203008Y134247D01*
Y134092D01*
X202781D01*
Y134167D01*
X202762Y134213D01*
X202716Y134232D01*
X202184D01*
X202138Y134213D01*
X202119Y134167D01*
Y133793D01*
X202138Y133747D01*
X202184Y133728D01*
X202716D01*
X202762Y133747D01*
X202781Y133793D01*
Y133868D01*
X203016D01*
X203020Y133845D01*
X203054Y133794D01*
Y133542D01*
X203054Y133542D01*
X203063Y133500D01*
X203087Y133463D01*
X203379Y133171D01*
X203416Y133146D01*
X203459Y133138D01*
X203459Y133138D01*
X204333D01*
X204348Y133102D01*
X204394Y133083D01*
X204461D01*
Y133017D01*
X204394D01*
X204348Y132998D01*
X204329Y132952D01*
Y132617D01*
X204348Y132571D01*
X204394Y132552D01*
X204469D01*
X204496Y132502D01*
X204476Y132472D01*
X204461Y132400D01*
X204464Y132386D01*
X204432Y132348D01*
X204394D01*
X204348Y132329D01*
X204329Y132283D01*
Y131948D01*
X204348Y131902D01*
X204394Y131883D01*
X204906D01*
X204952Y131902D01*
X204971Y131948D01*
Y132283D01*
X204952Y132329D01*
X204906Y132348D01*
X204868D01*
X204836Y132386D01*
X204839Y132400D01*
X204824Y132472D01*
X204804Y132502D01*
X204831Y132552D01*
X204906D01*
X204952Y132571D01*
X204971Y132617D01*
Y132952D01*
X204952Y132998D01*
X204906Y133017D01*
X204839D01*
Y133083D01*
X204906D01*
X204952Y133102D01*
X204962Y133127D01*
X205038D01*
X205048Y133102D01*
X205094Y133083D01*
X205606D01*
X205652Y133102D01*
X205662Y133127D01*
X205738D01*
X205748Y133102D01*
X205794Y133083D01*
X205861D01*
Y133017D01*
X205794D01*
X205748Y132998D01*
X205729Y132952D01*
Y132617D01*
X205748Y132571D01*
X205794Y132552D01*
X205869D01*
X205896Y132502D01*
X205876Y132472D01*
X205861Y132400D01*
X205864Y132386D01*
X205832Y132348D01*
X205794D01*
X205748Y132329D01*
X205729Y132283D01*
Y131948D01*
X205748Y131902D01*
X205794Y131883D01*
X206306D01*
X206352Y131902D01*
X206371Y131948D01*
X206419Y131948D01*
X206438Y131902D01*
X206484Y131883D01*
X206675D01*
Y132135D01*
Y132387D01*
X206484D01*
X206438Y132368D01*
X206419Y132322D01*
Y132286D01*
X206371Y132283D01*
X206352Y132329D01*
X206306Y132348D01*
X206268D01*
X206236Y132386D01*
X206239Y132400D01*
X206224Y132472D01*
X206204Y132502D01*
X206231Y132552D01*
X206306D01*
X206352Y132571D01*
X206371Y132617D01*
X206419Y132614D01*
Y132578D01*
X206438Y132532D01*
X206484Y132513D01*
X207016D01*
X207062Y132532D01*
X207081Y132578D01*
Y132952D01*
X207062Y132998D01*
X207016Y133017D01*
X206939D01*
Y133083D01*
X207006D01*
X207052Y133102D01*
X207062Y133127D01*
X207457D01*
X208011Y132572D01*
Y131124D01*
X207830D01*
X207812Y131168D01*
X207766Y131187D01*
X207234D01*
X207188Y131168D01*
X207169Y131122D01*
Y130748D01*
X207188Y130702D01*
X207234Y130683D01*
X207766D01*
X207812Y130702D01*
X207830Y130746D01*
X207882D01*
X207901Y130700D01*
X207658Y130457D01*
X207535D01*
X207489Y130438D01*
X207470Y130392D01*
Y130156D01*
X207489Y130110D01*
X207535Y130091D01*
X207713D01*
X207741Y130085D01*
X207769Y130091D01*
X207948D01*
X207994Y130110D01*
X208013Y130156D01*
Y130279D01*
X208333Y130599D01*
X208374Y130660D01*
X208389Y130733D01*
Y130767D01*
X208552D01*
X208585Y130687D01*
X208670Y130576D01*
X208781Y130491D01*
X208911Y130437D01*
X209050Y130419D01*
X209189Y130437D01*
X209319Y130491D01*
X209430Y130576D01*
X209515Y130687D01*
X209569Y130817D01*
X209587Y130956D01*
X209569Y131095D01*
X209515Y131224D01*
X209430Y131336D01*
X209319Y131421D01*
X209189Y131475D01*
X209050Y131493D01*
X208911Y131475D01*
X208781Y131421D01*
X208670Y131336D01*
X208585Y131224D01*
X208552Y131145D01*
X208389D01*
Y132650D01*
X208374Y132722D01*
X208333Y132783D01*
X207668Y133449D01*
X207607Y133490D01*
X207535Y133504D01*
X207062D01*
X207052Y133529D01*
X207006Y133548D01*
X206931D01*
X206904Y133598D01*
X206924Y133628D01*
X206939Y133700D01*
X206936Y133714D01*
X206968Y133752D01*
X207006D01*
X207052Y133771D01*
X207071Y133817D01*
Y134152D01*
X207056Y134187D01*
X207078Y134237D01*
X208294D01*
X208575Y133956D01*
X208531Y133851D01*
X208513Y133712D01*
X208531Y133573D01*
X208585Y133443D01*
X208670Y133332D01*
X208781Y133247D01*
X208911Y133193D01*
X209050Y133175D01*
X209189Y133193D01*
X209319Y133247D01*
X209430Y133332D01*
X209515Y133443D01*
X209569Y133573D01*
X209587Y133712D01*
X209569Y133851D01*
X209515Y133980D01*
X209430Y134092D01*
X209319Y134177D01*
X209189Y134231D01*
X209050Y134249D01*
X208911Y134231D01*
X208806Y134187D01*
X208477Y134515D01*
X208424Y134551D01*
X208362Y134563D01*
X206465D01*
X206403Y134551D01*
X206350Y134515D01*
X206052Y134217D01*
X205878D01*
X205859Y134263D01*
X206233Y134637D01*
X208760D01*
X208764Y134638D01*
X208781Y134625D01*
X208911Y134571D01*
X209050Y134553D01*
X209189Y134571D01*
X209319Y134625D01*
X209430Y134710D01*
X209515Y134821D01*
X209569Y134951D01*
X209587Y135090D01*
X209569Y135229D01*
X209515Y135358D01*
X209430Y135470D01*
X209319Y135555D01*
X209189Y135609D01*
X209050Y135627D01*
D02*
G37*
G36*
X209125Y136995D02*
Y136543D01*
X209577D01*
X209569Y136607D01*
X209515Y136736D01*
X209430Y136847D01*
X209319Y136933D01*
X209189Y136986D01*
X209125Y136995D01*
D02*
G37*
G36*
X208975Y136995D02*
X208911Y136986D01*
X208781Y136933D01*
X208670Y136847D01*
X208585Y136736D01*
X208531Y136607D01*
X208523Y136543D01*
X208975D01*
Y136995D01*
D02*
G37*
G36*
X200625Y136995D02*
Y136543D01*
X201077D01*
X201069Y136607D01*
X201015Y136736D01*
X200930Y136847D01*
X200819Y136933D01*
X200689Y136986D01*
X200625Y136995D01*
D02*
G37*
G36*
X200475D02*
X200411Y136986D01*
X200281Y136933D01*
X200170Y136847D01*
X200085Y136736D01*
X200031Y136607D01*
X200023Y136543D01*
X200475D01*
Y136995D01*
D02*
G37*
G36*
X201077Y136393D02*
X200625D01*
Y135941D01*
X200689Y135949D01*
X200819Y136003D01*
X200930Y136088D01*
X201015Y136199D01*
X201069Y136329D01*
X201077Y136393D01*
D02*
G37*
G36*
X200475D02*
X200023D01*
X200031Y136329D01*
X200085Y136199D01*
X200170Y136088D01*
X200281Y136003D01*
X200411Y135949D01*
X200475Y135941D01*
Y136393D01*
D02*
G37*
G36*
X209577Y136393D02*
X209125D01*
Y135941D01*
X209189Y135949D01*
X209319Y136003D01*
X209430Y136088D01*
X209515Y136199D01*
X209569Y136329D01*
X209577Y136393D01*
D02*
G37*
G36*
X208975D02*
X208523D01*
X208531Y136329D01*
X208585Y136199D01*
X208670Y136088D01*
X208781Y136003D01*
X208911Y135949D01*
X208975Y135941D01*
Y136393D01*
D02*
G37*
G36*
X202375Y133017D02*
X202194D01*
X202148Y132998D01*
X202129Y132952D01*
Y132860D01*
X202375D01*
Y133017D01*
D02*
G37*
G36*
X207081Y132060D02*
X206825D01*
Y131883D01*
X207016D01*
X207062Y131902D01*
X207081Y131948D01*
Y132060D01*
D02*
G37*
G36*
X209577Y132259D02*
X209125D01*
Y131807D01*
X209189Y131815D01*
X209319Y131869D01*
X209430Y131954D01*
X209515Y132065D01*
X209569Y132195D01*
X209577Y132259D01*
D02*
G37*
G36*
X207016Y132387D02*
X206825D01*
Y132210D01*
X207081D01*
Y132322D01*
X207062Y132368D01*
X207016Y132387D01*
D02*
G37*
G36*
X205671Y132710D02*
X205350D01*
X205029D01*
Y132617D01*
X205048Y132571D01*
X205094Y132552D01*
X205169D01*
X205196Y132502D01*
X205176Y132472D01*
X205161Y132400D01*
X205164Y132386D01*
X205132Y132348D01*
X205094D01*
X205048Y132329D01*
X205029Y132283D01*
Y131948D01*
X205048Y131902D01*
X205094Y131883D01*
X205606D01*
X205652Y131902D01*
X205671Y131948D01*
Y132283D01*
X205652Y132329D01*
X205606Y132348D01*
X205568D01*
X205536Y132386D01*
X205539Y132400D01*
X205524Y132472D01*
X205504Y132502D01*
X205531Y132552D01*
X205606D01*
X205652Y132571D01*
X205671Y132617D01*
Y132710D01*
D02*
G37*
G36*
X200475Y132259D02*
X200023D01*
X200031Y132195D01*
X200085Y132065D01*
X200170Y131954D01*
X200281Y131869D01*
X200411Y131815D01*
X200475Y131807D01*
Y132259D01*
D02*
G37*
G36*
X207766Y131817D02*
X207575D01*
Y131640D01*
X207831D01*
Y131752D01*
X207812Y131798D01*
X207766Y131817D01*
D02*
G37*
G36*
X208975Y132259D02*
X208523D01*
X208531Y132195D01*
X208585Y132065D01*
X208670Y131954D01*
X208781Y131869D01*
X208911Y131815D01*
X208975Y131807D01*
Y132259D01*
D02*
G37*
G36*
X201077Y132259D02*
X200625D01*
Y131807D01*
X200689Y131815D01*
X200819Y131869D01*
X200930Y131954D01*
X201015Y132065D01*
X201069Y132195D01*
X201077Y132259D01*
D02*
G37*
G36*
X208975Y132861D02*
X208911Y132853D01*
X208781Y132799D01*
X208670Y132714D01*
X208585Y132602D01*
X208531Y132473D01*
X208523Y132409D01*
X208975D01*
Y132861D01*
D02*
G37*
G36*
X202771Y132710D02*
X202525D01*
Y132552D01*
X202706D01*
X202752Y132571D01*
X202771Y132617D01*
Y132710D01*
D02*
G37*
G36*
X203934Y132653D02*
X203873Y132641D01*
X203822Y132607D01*
X203790D01*
X203738Y132641D01*
X203678Y132653D01*
X203617Y132641D01*
X203585Y132619D01*
X203550Y132611D01*
X203515Y132619D01*
X203483Y132641D01*
X203422Y132653D01*
X203362Y132641D01*
X203310Y132607D01*
X203278D01*
X203227Y132641D01*
X203166Y132653D01*
X203106Y132641D01*
X203054Y132607D01*
X203020Y132555D01*
X203008Y132495D01*
Y132153D01*
X203020Y132093D01*
X203054Y132042D01*
Y131928D01*
X202987D01*
X202941Y131909D01*
X202922Y131863D01*
Y131748D01*
X202771D01*
Y131752D01*
X202752Y131798D01*
X202706Y131817D01*
X202613D01*
Y131883D01*
X202706D01*
X202752Y131902D01*
X202771Y131948D01*
Y132283D01*
X202752Y132329D01*
X202706Y132348D01*
X202194D01*
X202148Y132329D01*
X202129Y132283D01*
Y131948D01*
X202148Y131902D01*
X202194Y131883D01*
X202287D01*
Y131817D01*
X202194D01*
X202148Y131798D01*
X202129Y131752D01*
Y131417D01*
X202148Y131371D01*
X202194Y131352D01*
X202706D01*
X202752Y131371D01*
X202771Y131417D01*
Y131422D01*
X202996D01*
X203058Y131434D01*
X203111Y131469D01*
X203192Y131550D01*
X203311D01*
Y131050D01*
X203225D01*
Y130861D01*
X203150D01*
Y130786D01*
X202922D01*
Y130737D01*
X202941Y130691D01*
X202987Y130672D01*
X203127D01*
X203154Y130622D01*
X203150Y130617D01*
X202894D01*
X202848Y130598D01*
X202829Y130552D01*
Y130362D01*
X202821Y130357D01*
X202771Y130383D01*
Y130552D01*
X202752Y130598D01*
X202706Y130617D01*
X202194D01*
X202148Y130598D01*
X202129Y130552D01*
Y130295D01*
X200569Y128735D01*
X200550Y128737D01*
X200411Y128719D01*
X200281Y128665D01*
X200170Y128580D01*
X200085Y128469D01*
X200031Y128339D01*
X200013Y128200D01*
X200031Y128061D01*
X200085Y127931D01*
X200170Y127820D01*
X200281Y127735D01*
X200411Y127681D01*
X200550Y127663D01*
X200689Y127681D01*
X200819Y127735D01*
X200930Y127820D01*
X201015Y127931D01*
X201069Y128061D01*
X201087Y128200D01*
X201069Y128339D01*
X201015Y128469D01*
X200930Y128580D01*
X200929Y128580D01*
X200926Y128630D01*
X202083Y129787D01*
X202129Y129768D01*
Y129548D01*
X202148Y129502D01*
X202194Y129483D01*
X202287D01*
Y129428D01*
X202287D01*
X202241Y129409D01*
X202222Y129363D01*
Y129115D01*
X202241Y129069D01*
X202287Y129050D01*
X202613D01*
X202659Y129069D01*
X202678Y129115D01*
Y129363D01*
X202659Y129409D01*
X202613Y129428D01*
X202613D01*
Y129483D01*
X202706D01*
X202752Y129502D01*
X202771Y129548D01*
Y129768D01*
X202779Y129774D01*
X202829Y129747D01*
Y129548D01*
X202848Y129502D01*
X202894Y129483D01*
X203075D01*
Y129715D01*
Y129948D01*
X202978D01*
X202959Y129994D01*
X203118Y130152D01*
X203406D01*
X203452Y130171D01*
X203471Y130217D01*
X203519Y130214D01*
Y130178D01*
X203538Y130132D01*
X203584Y130113D01*
X204116D01*
X204162Y130132D01*
X204207Y130112D01*
X204313Y130007D01*
X204311Y130000D01*
X204326Y129928D01*
X204367Y129867D01*
X204428Y129826D01*
X204500Y129811D01*
X204572Y129826D01*
X204633Y129867D01*
X204657Y129901D01*
X204707Y129886D01*
Y129825D01*
X204714Y129786D01*
X204736Y129753D01*
X204769Y129731D01*
X204808Y129723D01*
X204847Y129731D01*
X204880Y129753D01*
X204933D01*
X204942Y129747D01*
X204953Y129687D01*
X204897Y129631D01*
X204833D01*
X204787Y129612D01*
X204781Y129612D01*
X204735Y129631D01*
X204577D01*
X204531Y129612D01*
X204525Y129612D01*
X204479Y129631D01*
X204475D01*
Y129300D01*
Y128969D01*
X204479D01*
X204525Y128988D01*
X204531Y128988D01*
X204577Y128969D01*
X204735D01*
X204781Y128988D01*
X204787Y128988D01*
X204833Y128969D01*
X204991D01*
X205036Y128988D01*
X205043Y128988D01*
X205089Y128969D01*
X205246D01*
X205292Y128988D01*
X205299Y128988D01*
X205345Y128969D01*
X205502D01*
X205548Y128988D01*
X205567Y129034D01*
Y129087D01*
X206383D01*
X206445Y129099D01*
X206498Y129135D01*
X206706Y129343D01*
X206865D01*
X206875Y129347D01*
X208137Y128085D01*
X208190Y128049D01*
X208252Y128037D01*
X208252Y128037D01*
X208541D01*
X208585Y127931D01*
X208670Y127820D01*
X208781Y127735D01*
X208911Y127681D01*
X209050Y127663D01*
X209189Y127681D01*
X209319Y127735D01*
X209430Y127820D01*
X209515Y127931D01*
X209569Y128061D01*
X209587Y128200D01*
X209569Y128339D01*
X209515Y128469D01*
X209430Y128580D01*
X209319Y128665D01*
X209189Y128719D01*
X209050Y128737D01*
X208911Y128719D01*
X208781Y128665D01*
X208670Y128580D01*
X208585Y128469D01*
X208541Y128363D01*
X208320D01*
X207157Y129526D01*
X207165Y129535D01*
X207201Y129588D01*
X207213Y129650D01*
Y130150D01*
X207201Y130212D01*
X207165Y130265D01*
X207041Y130389D01*
X206988Y130425D01*
X206926Y130437D01*
X206913D01*
Y130683D01*
X207016D01*
X207062Y130702D01*
X207081Y130748D01*
Y131122D01*
X207062Y131168D01*
X207016Y131187D01*
X206484D01*
X206438Y131168D01*
X206419Y131122D01*
Y130748D01*
X206438Y130702D01*
X206484Y130683D01*
X206587D01*
Y130457D01*
X206523D01*
X206460Y130520D01*
X206430Y130540D01*
X206395Y130546D01*
X206330D01*
X206330Y130547D01*
X206308Y130596D01*
X206319Y130613D01*
X206327Y130652D01*
X206319Y130690D01*
X206297Y130723D01*
Y130777D01*
X206319Y130810D01*
X206327Y130848D01*
X206319Y130887D01*
X206297Y130920D01*
Y130974D01*
X206319Y131006D01*
X206327Y131045D01*
X206319Y131084D01*
X206297Y131117D01*
Y131170D01*
X206319Y131203D01*
X206327Y131242D01*
X206319Y131281D01*
X206297Y131314D01*
X206264Y131336D01*
X206225Y131343D01*
X205989D01*
X205950Y131336D01*
X205929Y131321D01*
X205873Y131323D01*
X205871Y131379D01*
X205886Y131400D01*
X205893Y131439D01*
Y131675D01*
X205886Y131714D01*
X205864Y131747D01*
X205831Y131769D01*
X205792Y131777D01*
X205753Y131769D01*
X205720Y131747D01*
X205667D01*
X205634Y131769D01*
X205595Y131777D01*
X205557Y131769D01*
X205524Y131747D01*
X205470D01*
X205437Y131769D01*
X205398Y131777D01*
X205360Y131769D01*
X205327Y131747D01*
X205273D01*
X205240Y131769D01*
X205202Y131777D01*
X205163Y131769D01*
X205130Y131747D01*
X205076D01*
X205044Y131769D01*
X205005Y131777D01*
X204966Y131769D01*
X204933Y131747D01*
X204880D01*
X204847Y131769D01*
X204808Y131777D01*
X204769Y131769D01*
X204736Y131747D01*
X204714Y131714D01*
X204707Y131675D01*
Y131439D01*
X204714Y131400D01*
X204729Y131379D01*
X204727Y131323D01*
X204671Y131321D01*
X204650Y131336D01*
X204611Y131343D01*
X204578D01*
X204551Y131393D01*
X204574Y131428D01*
X204589Y131500D01*
X204574Y131572D01*
X204533Y131633D01*
X204472Y131674D01*
X204400Y131689D01*
X204328Y131674D01*
X204267Y131633D01*
X204226Y131572D01*
X204221Y131548D01*
X204171Y131553D01*
Y131752D01*
X204152Y131798D01*
X204106Y131817D01*
X204046D01*
Y132042D01*
X204080Y132093D01*
X204092Y132153D01*
Y132495D01*
X204080Y132555D01*
X204046Y132607D01*
X203994Y132641D01*
X203934Y132653D01*
D02*
G37*
G36*
X205275Y133017D02*
X205094D01*
X205048Y132998D01*
X205029Y132952D01*
Y132860D01*
X205275D01*
Y133017D01*
D02*
G37*
G36*
X202375Y132710D02*
X202129D01*
Y132617D01*
X202148Y132571D01*
X202194Y132552D01*
X202375D01*
Y132710D01*
D02*
G37*
G36*
X209125Y132861D02*
Y132409D01*
X209577D01*
X209569Y132473D01*
X209515Y132602D01*
X209430Y132714D01*
X209319Y132799D01*
X209189Y132853D01*
X209125Y132861D01*
D02*
G37*
G36*
X200475D02*
X200411Y132853D01*
X200281Y132799D01*
X200170Y132714D01*
X200085Y132602D01*
X200031Y132473D01*
X200023Y132409D01*
X200475D01*
Y132861D01*
D02*
G37*
G36*
X200625D02*
Y132409D01*
X201077D01*
X201069Y132473D01*
X201015Y132602D01*
X200930Y132714D01*
X200819Y132799D01*
X200689Y132853D01*
X200625Y132861D01*
D02*
G37*
%LPD*%
G36*
X206387Y130298D02*
Y130156D01*
X206406Y130110D01*
X206406Y130064D01*
X206387Y130018D01*
Y129975D01*
X206659D01*
Y129825D01*
X206387D01*
Y129782D01*
X206406Y129736D01*
X206406Y129690D01*
X206387Y129644D01*
Y129485D01*
X206315Y129413D01*
X205891D01*
X205864Y129463D01*
X205874Y129478D01*
X205889Y129550D01*
X205877Y129608D01*
X205884Y129642D01*
Y129783D01*
X205886Y129786D01*
X205893Y129825D01*
Y130014D01*
X206036Y130157D01*
X206225D01*
X206264Y130164D01*
X206297Y130186D01*
X206319Y130219D01*
X206327Y130258D01*
X206320Y130288D01*
X206330Y130312D01*
X206345Y130335D01*
X206387Y130298D01*
D02*
G37*
D10*
X207500Y130935D02*
D03*
Y131565D02*
D03*
X202450Y133350D02*
D03*
Y133980D02*
D03*
X203850Y129735D02*
D03*
Y130365D02*
D03*
X206750Y130935D02*
D03*
Y131565D02*
D03*
Y132765D02*
D03*
Y132135D02*
D03*
D11*
X202450Y131585D02*
D03*
Y130915D02*
D03*
X203850Y130915D02*
D03*
Y131585D02*
D03*
X202450Y129715D02*
D03*
Y130385D02*
D03*
X206050Y132115D02*
D03*
Y132785D02*
D03*
X204650Y133985D02*
D03*
Y133315D02*
D03*
Y132115D02*
D03*
Y132785D02*
D03*
X205350Y132115D02*
D03*
Y132785D02*
D03*
Y133985D02*
D03*
Y133315D02*
D03*
X206050Y133985D02*
D03*
Y133315D02*
D03*
X206750Y133985D02*
D03*
Y133315D02*
D03*
X202450Y132785D02*
D03*
Y132115D02*
D03*
X203150Y129715D02*
D03*
Y130385D02*
D03*
D12*
Y131739D02*
D03*
Y130861D02*
D03*
X202450Y129239D02*
D03*
Y128361D02*
D03*
D13*
X206659Y130274D02*
D03*
Y129900D02*
D03*
Y129526D02*
D03*
X207741D02*
D03*
Y130274D02*
D03*
D14*
X206565Y128247D02*
D03*
X203258D02*
D03*
D15*
X205424Y129300D02*
D03*
X205168D02*
D03*
X204912D02*
D03*
X204656D02*
D03*
X204400D02*
D03*
D16*
X205300Y130750D02*
D03*
D17*
X204493Y130258D02*
D03*
Y130455D02*
D03*
Y130652D02*
D03*
Y130848D02*
D03*
Y131045D02*
D03*
Y131242D02*
D03*
X206107D02*
D03*
Y131045D02*
D03*
Y130848D02*
D03*
Y130652D02*
D03*
Y130455D02*
D03*
Y130258D02*
D03*
D18*
X204808Y131557D02*
D03*
X205005D02*
D03*
X205202D02*
D03*
X205398D02*
D03*
X205595D02*
D03*
X205792D02*
D03*
Y129943D02*
D03*
X205595D02*
D03*
X205398D02*
D03*
X205202D02*
D03*
X205005D02*
D03*
X204808D02*
D03*
D19*
X203934Y134076D02*
D03*
X203678D02*
D03*
X203422D02*
D03*
X203166D02*
D03*
X203934Y132324D02*
D03*
X203678D02*
D03*
X203422D02*
D03*
X203166D02*
D03*
D20*
X208362Y134400D02*
X209050Y133712D01*
X206465Y134400D02*
X208362D01*
X206050Y133985D02*
X206465Y134400D01*
X208975Y135165D02*
X209100Y135290D01*
X200450Y128385D02*
X202450Y130385D01*
X200450Y128300D02*
Y128385D01*
Y128300D02*
X200550Y128200D01*
X200560Y131156D02*
X200655Y131061D01*
X200591Y130915D02*
X202450D01*
X200550Y130956D02*
X200591Y130915D01*
X206165Y134800D02*
X208760D01*
X209050Y135090D01*
Y128400D02*
X209101D01*
X208252Y128200D02*
X209050D01*
X206926Y129526D02*
X208252Y128200D01*
X205474Y129250D02*
X206383D01*
X206659Y129526D01*
X206926D01*
X206926Y130274D02*
X207050Y130150D01*
Y129650D02*
Y130150D01*
X206926Y129526D02*
X207050Y129650D01*
X206659Y130274D02*
X206926D01*
X206659D02*
X206750Y130365D01*
Y130935D01*
X205350Y132115D02*
Y132400D01*
X206050Y132115D02*
Y132400D01*
X204650Y132115D02*
Y132400D01*
X204615Y133950D02*
X204650Y133985D01*
X204250Y133950D02*
X204615D01*
X202450Y129715D02*
X203119Y130385D01*
X202450Y129239D02*
Y129715D01*
Y131585D02*
Y132115D01*
Y131585D02*
X202996D01*
X203150Y131739D01*
X205350Y133985D02*
X206165Y134800D01*
X203119Y130385D02*
X203150D01*
X206750Y133700D02*
Y133985D01*
D21*
X203934Y134284D02*
X203950D01*
X202450Y133980D02*
X203166D01*
X203422Y132324D02*
X203423Y132323D01*
Y130690D02*
Y132323D01*
X203150Y130417D02*
X203423Y130690D01*
X203150Y130385D02*
Y130417D01*
X203166Y131755D02*
Y132324D01*
X203150Y131739D02*
X203166Y131755D01*
X203934Y131669D02*
Y132324D01*
X203850Y131585D02*
X203934Y131669D01*
X205600Y133650D02*
X205935Y133985D01*
X206050D01*
X204950Y134300D02*
X205265Y133985D01*
X205350D01*
X203934Y134076D02*
Y134284D01*
X203966Y134300D02*
X204950D01*
X203950Y134284D02*
X203966Y134300D01*
X203166Y133980D02*
Y134076D01*
X203899Y133650D02*
X205600D01*
X203678Y133871D02*
Y134076D01*
Y133871D02*
X203899Y133650D01*
X204585Y133250D02*
X204650Y133315D01*
X203422Y133678D02*
Y134076D01*
Y133678D02*
X203550Y133550D01*
X203166Y133542D02*
Y133980D01*
Y133542D02*
X203459Y133250D01*
X204585D01*
D22*
X208200Y130950D02*
X208206Y130956D01*
X209050D01*
X208200Y130950D02*
Y132650D01*
X204650Y132785D02*
Y133315D01*
X207741Y130274D02*
X208200Y130733D01*
X207500Y130935D02*
X208185D01*
X208200Y130950D01*
Y130733D02*
Y130950D01*
X203850Y130365D02*
Y130915D01*
X207535Y133315D02*
X208200Y132650D01*
X206750Y133315D02*
X207535D01*
X206050D02*
X206750D01*
X205350D02*
X206050D01*
Y132785D02*
Y133315D01*
X206750Y132765D02*
Y133315D01*
X204650D02*
X205350D01*
D23*
X205300Y130750D02*
X206150Y131600D01*
X205595Y129655D02*
Y129943D01*
Y129655D02*
X205700Y129550D01*
X205792Y129642D01*
X205398Y129748D02*
Y129943D01*
X205168Y129518D02*
X205398Y129748D01*
X205168Y129300D02*
Y129518D01*
X206008Y130258D02*
X206107D01*
X205792Y130042D02*
X206008Y130258D01*
X205792Y129943D02*
Y130042D01*
X204650Y131400D02*
X205300Y130750D01*
X205792Y129642D02*
Y129943D01*
X206576Y130274D02*
X206659D01*
X206395Y130455D02*
X206576Y130274D01*
X206107Y130455D02*
X206395D01*
X204355Y131045D02*
X204493D01*
X204245Y131155D02*
X204355Y131045D01*
X204348Y130848D02*
X204493D01*
X204245Y130745D02*
X204348Y130848D01*
X205005Y130455D02*
X205300Y130750D01*
X204912Y129300D02*
Y129516D01*
X205202Y129806D01*
Y129943D01*
X204245Y130204D02*
Y130745D01*
Y130204D02*
X204450Y130000D01*
X204500D01*
X204245Y131155D02*
Y131345D01*
X204400Y131500D01*
D24*
X205424Y129300D02*
X205474Y129250D01*
D25*
X205005Y129943D02*
Y130455D01*
Y129793D02*
Y129943D01*
X204898Y129685D02*
X205005Y129793D01*
X204496Y129685D02*
X204898D01*
X204432Y129750D02*
X204496Y129685D01*
X204400Y129718D02*
X204432Y129750D01*
X204400Y129300D02*
Y129718D01*
D26*
X200550Y132334D02*
D03*
Y136468D02*
D03*
Y135090D02*
D03*
Y133712D02*
D03*
X209050Y133712D02*
D03*
Y135090D02*
D03*
Y130956D02*
D03*
Y128200D02*
D03*
Y136468D02*
D03*
Y132334D02*
D03*
X200550Y130956D02*
D03*
Y128200D02*
D03*
Y129578D02*
D03*
X209050Y129578D02*
D03*
D27*
X204830Y128700D02*
D03*
X205700Y129550D02*
D03*
X206130Y129790D02*
D03*
X204250Y133950D02*
D03*
X204650Y132400D02*
D03*
X205350D02*
D03*
X206050D02*
D03*
X206150Y131600D02*
D03*
X202300Y127850D02*
D03*
X205650Y128700D02*
D03*
X203550Y133550D02*
D03*
X204500Y130000D02*
D03*
X204400Y131500D02*
D03*
X207150Y133650D02*
D03*
X206750Y133700D02*
D03*
X202000Y134500D02*
D03*
X203000Y129000D02*
D03*
X203500Y133000D02*
D03*
X204000Y129000D02*
D03*
X207500Y128000D02*
D03*
X209000Y133000D02*
D03*
D28*
X204800Y139050D02*
D03*
M02*
