M48
;Layer_Color=9474304
;FILE_FORMAT=2:4
INCH
;TYPE=PLATED
T1F00S00C0.0130
T2F00S00C0.0472
T3F00S00C0.1500
%
T01
X202300Y127850
X203000Y129000
X202000Y134500
X203550Y133550
X203500Y133000
X204250Y133950
X204650Y132400
X205350
X206050
X206150Y131600
X206130Y129790
X205700Y129550
X205650Y128700
X204830
X204000Y129000
X204500Y130000
X204400Y131500
X206750Y133700
X207150Y133650
X209000Y133000
X207500Y128000
T02
X200550Y128200
Y129578
Y130956
Y132334
Y133712
Y135090
Y136468
X209050Y136468
Y135090
Y133712
Y132334
Y130956
Y129578
Y128200
T03
X204800Y139050
M30
