G04 Layer_Color=2752767*
%FSAX24Y24*%
%MOIN*%
G70*
G01*
G75*
%ADD35C,0.0020*%
%ADD36C,0.0027*%
D35*
X200470Y132254D02*
Y132414D01*
X200630D01*
Y132254D01*
X200470D01*
Y136388D02*
Y136548D01*
X200630D01*
Y136388D01*
X200470D01*
Y135010D02*
Y135170D01*
X200630D01*
Y135010D01*
X200470D01*
Y133632D02*
Y133792D01*
X200630D01*
Y133632D01*
X200470D01*
X208970Y133632D02*
Y133792D01*
X209130D01*
Y133632D01*
X208970D01*
Y135010D02*
Y135170D01*
X209130D01*
Y135010D01*
X208970D01*
Y130876D02*
Y131036D01*
X209130D01*
Y130876D01*
X208970D01*
Y128120D02*
Y128280D01*
X209130D01*
Y128120D01*
X208970D01*
Y136388D02*
Y136548D01*
X209130D01*
Y136388D01*
X208970D01*
Y132254D02*
Y132414D01*
X209130D01*
Y132254D01*
X208970D01*
X200470Y130876D02*
Y131036D01*
X200630D01*
Y130876D01*
X200470D01*
Y128120D02*
Y128280D01*
X200630D01*
Y128120D01*
X200470D01*
Y129498D02*
Y129658D01*
X200630D01*
Y129498D01*
X200470D01*
X208970Y129498D02*
Y129658D01*
X209130D01*
Y129498D01*
X208970D01*
X204800Y138970D02*
X204720Y139130D01*
X204880D01*
X204800Y138970D01*
D36*
X204910Y128700D02*
G03*
X204910Y128700I-000080J000000D01*
G01*
X205780Y129550D02*
G03*
X205780Y129550I-000080J000000D01*
G01*
X206210Y129790D02*
G03*
X206210Y129790I-000080J000000D01*
G01*
X204330Y133950D02*
G03*
X204330Y133950I-000080J000000D01*
G01*
X204730Y132400D02*
G03*
X204730Y132400I-000080J000000D01*
G01*
X205430D02*
G03*
X205430Y132400I-000080J000000D01*
G01*
X206130D02*
G03*
X206130Y132400I-000080J000000D01*
G01*
X206230Y131600D02*
G03*
X206230Y131600I-000080J000000D01*
G01*
X202380Y127850D02*
G03*
X202380Y127850I-000080J000000D01*
G01*
X205730Y128700D02*
G03*
X205730Y128700I-000080J000000D01*
G01*
X203630Y133550D02*
G03*
X203630Y133550I-000080J000000D01*
G01*
X204580Y130000D02*
G03*
X204580Y130000I-000080J000000D01*
G01*
X204480Y131500D02*
G03*
X204480Y131500I-000080J000000D01*
G01*
X207230Y133650D02*
G03*
X207230Y133650I-000080J000000D01*
G01*
X206830Y133700D02*
G03*
X206830Y133700I-000080J000000D01*
G01*
X202080Y134500D02*
G03*
X202080Y134500I-000080J000000D01*
G01*
X203080Y129000D02*
G03*
X203080Y129000I-000080J000000D01*
G01*
X203580Y133000D02*
G03*
X203580Y133000I-000080J000000D01*
G01*
X204080Y129000D02*
G03*
X204080Y129000I-000080J000000D01*
G01*
X207580Y128000D02*
G03*
X207580Y128000I-000080J000000D01*
G01*
X209080Y133000D02*
G03*
X209080Y133000I-000080J000000D01*
G01*
M02*
