G04 Layer_Color=128*
%FSAX24Y24*%
%MOIN*%
G70*
G01*
G75*
%ADD35C,0.0020*%
D35*
X200314Y132334D02*
X200786D01*
X200550Y132098D02*
Y132570D01*
X200314Y136468D02*
X200786D01*
X200550Y136231D02*
Y136704D01*
X200314Y135090D02*
X200786D01*
X200550Y134854D02*
Y135326D01*
X200314Y133712D02*
X200786D01*
X200550Y133476D02*
Y133948D01*
X208814Y133712D02*
X209286D01*
X209050Y133476D02*
Y133948D01*
X208814Y135090D02*
X209286D01*
X209050Y134854D02*
Y135326D01*
X208814Y130956D02*
X209286D01*
X209050Y130720D02*
Y131192D01*
X208814Y128200D02*
X209286D01*
X209050Y127964D02*
Y128436D01*
X208814Y136468D02*
X209286D01*
X209050Y136231D02*
Y136704D01*
X208814Y132334D02*
X209286D01*
X209050Y132098D02*
Y132570D01*
X200314Y130956D02*
X200786D01*
X200550Y130720D02*
Y131192D01*
X200314Y128200D02*
X200786D01*
X200550Y127964D02*
Y128436D01*
X200314Y129578D02*
X200786D01*
X200550Y129342D02*
Y129814D01*
X208814Y129578D02*
X209286D01*
X209050Y129342D02*
Y129814D01*
X204765Y128700D02*
X204895D01*
X204830Y128635D02*
Y128765D01*
X205635Y129550D02*
X205765D01*
X205700Y129485D02*
Y129615D01*
X206065Y129790D02*
X206195D01*
X206130Y129725D02*
Y129855D01*
X204185Y133950D02*
X204315D01*
X204250Y133885D02*
Y134015D01*
X204585Y132400D02*
X204715D01*
X204650Y132335D02*
Y132465D01*
X205285Y132400D02*
X205415D01*
X205350Y132335D02*
Y132465D01*
X205985Y132400D02*
X206115D01*
X206050Y132335D02*
Y132465D01*
X204050Y139050D02*
X205550D01*
X204800Y138300D02*
Y139800D01*
X206085Y131600D02*
X206215D01*
X206150Y131535D02*
Y131665D01*
X202235Y127850D02*
X202365D01*
X202300Y127785D02*
Y127915D01*
X205585Y128700D02*
X205715D01*
X205650Y128635D02*
Y128765D01*
X203485Y133550D02*
X203615D01*
X203550Y133485D02*
Y133615D01*
X204435Y130000D02*
X204565D01*
X204500Y129935D02*
Y130065D01*
X204335Y131500D02*
X204465D01*
X204400Y131435D02*
Y131565D01*
X207085Y133650D02*
X207215D01*
X207150Y133585D02*
Y133715D01*
X206685Y133700D02*
X206815D01*
X206750Y133635D02*
Y133765D01*
X201935Y134500D02*
X202065D01*
X202000Y134435D02*
Y134565D01*
X202935Y129000D02*
X203065D01*
X203000Y128935D02*
Y129065D01*
X203435Y133000D02*
X203565D01*
X203500Y132935D02*
Y133065D01*
X203935Y129000D02*
X204065D01*
X204000Y128935D02*
Y129065D01*
X207435Y128000D02*
X207565D01*
X207500Y127935D02*
Y128065D01*
X208935Y133000D02*
X209065D01*
X209000Y132935D02*
Y133065D01*
M02*
